# xmcd CD database file
#
# Track frame offsets:
#	150
#	23350
#	42872
#	66147
#
# Disc length: 1154 seconds
#
# Revision: 0
# Processed by: cddbd v1.5.1PL0 Copyright (c) Steve Scherf et al.
# Submitted via: CDex 1.51
#
DISCID=25048004
DTITLE=V6 - UTAO-UTAO
DYEAR=2005
DGENRE=J-Pop
TTITLE0=UTAO-UTAO
TTITLE1=BREAKTHROUGH/Coming Century
TTITLE2=晴れ過ぎた空
TTITLE3=Drivin'【通常版ボーナストラック】
EXTD=YEAR: 2005.06.22
EXTT0=
EXTT1=
EXTT2=
EXTT3=
PLAYORDER=
